<?xml version="1.0" standalone="no"?>
<!DOCTYPE svg PUBLIC "-//W3C//DTD SVG 20010904//EN"
 "http://www.w3.org/TR/2001/REC-SVG-20010904/DTD/svg10.dtd">
<svg version="1.0" xmlns="http://www.w3.org/2000/svg"
 width="168.000000pt" height="94.000000pt" viewBox="0 0 168.000000 94.000000"
 preserveAspectRatio="xMidYMid meet">

<g transform="translate(0.000000,94.000000) scale(0.100000,-0.100000)"
fill="#000000" stroke="none">
<path d="M87 523 c-22 -49 -31 -79 -24 -82 6 -2 17 6 25 18 20 29 88 30 97 1
5 -16 35 -30 35 -16 0 20 -73 156 -83 156 -8 0 -30 -35 -50 -77z m73 -10 c0
-7 -12 -13 -26 -13 -21 0 -25 3 -19 18 4 9 10 25 13 36 5 17 6 16 18 -5 7 -13
13 -30 14 -36z"/>
<path d="M230 520 l0 -80 45 0 c25 0 45 5 45 10 0 6 -13 10 -30 10 l-30 0 0
70 c0 56 -3 70 -15 70 -12 0 -15 -16 -15 -80z"/>
<path d="M435 578 c-17 -76 -21 -138 -10 -138 16 0 25 23 25 59 0 46 12 43 36
-9 13 -28 28 -50 33 -50 6 0 24 26 40 58 25 47 30 52 31 31 0 -15 3 -41 6 -58
5 -26 11 -31 35 -31 18 0 32 7 39 20 8 15 21 20 50 20 30 0 40 -5 45 -20 6
-17 35 -30 35 -14 0 21 -71 154 -83 154 -8 0 -28 -32 -47 -75 -18 -42 -35 -73
-38 -70 -3 3 -10 35 -16 72 -6 36 -17 68 -24 71 -7 2 -24 -22 -41 -58 l-30
-62 -30 61 c-33 65 -47 75 -56 39z m300 -48 l16 -30 -31 0 c-16 0 -30 2 -30 5
0 7 23 55 26 55 2 0 10 -13 19 -30z"/>
<path d="M825 580 c-23 -25 -13 -48 29 -65 44 -19 53 -33 32 -53 -16 -16 -19
-16 -46 0 -36 21 -50 5 -16 -17 43 -29 112 -1 104 42 -2 9 -21 28 -43 40 -52
29 -53 49 -2 46 38 -2 50 10 21 21 -30 11 -61 6 -79 -14z"/>
<path d="M950 520 c0 -64 3 -80 15 -80 10 0 15 11 15 35 0 35 0 35 45 35 45 0
45 0 45 -35 0 -24 5 -35 15 -35 12 0 15 16 15 80 0 64 -3 80 -15 80 -10 0 -15
-10 -15 -30 0 -29 -2 -30 -45 -30 -43 0 -45 1 -45 30 0 20 -5 30 -15 30 -12 0
-15 -16 -15 -80z"/>
<path d="M1130 520 c0 -64 3 -80 15 -80 11 0 15 11 15 37 l0 38 27 -38 c15
-21 35 -37 45 -37 18 0 17 3 -7 31 -26 31 -26 32 -5 46 25 18 26 59 1 73 -11
5 -36 10 -55 10 l-36 0 0 -80z m78 36 c2 -10 -2 -22 -10 -27 -25 -17 -38 -9
-38 22 0 26 3 30 22 27 13 -2 24 -11 26 -22z"/>
<path d="M1260 520 l0 -80 55 0 c30 0 55 5 55 10 0 6 -18 10 -40 10 -36 0 -40
3 -40 25 0 22 4 25 35 25 19 0 35 5 35 10 0 6 -16 10 -35 10 -31 0 -35 3 -35
25 0 23 4 25 40 25 22 0 40 5 40 10 0 6 -25 10 -55 10 l-55 0 0 -80z"/>
<path d="M1415 575 c-34 -33 -34 -83 1 -116 20 -19 36 -24 79 -24 29 0 57 -3
61 -7 13 -14 25 4 13 18 -9 11 -9 18 -1 26 21 21 14 77 -13 103 -18 19 -35 25
-70 25 -35 0 -52 -6 -70 -25z m113 -11 c29 -20 31 -79 3 -94 -23 -12 -71 -13
-87 -2 -20 13 -32 47 -23 69 15 42 67 55 107 27z"/>
<path d="M340 490 c0 -5 14 -10 30 -10 17 0 30 5 30 10 0 6 -13 10 -30 10 -16
0 -30 -4 -30 -10z"/>
</g>
</svg>
